<svg width="116" height="64" viewBox="0 0 116 64" fill="none" xmlns="http://www.w3.org/2000/svg">
<g clip-path="url(#clip0_219_3515)">
<path d="M13.046 63.8556L11.6073 60.4905H5.12207L3.68342 63.8556H0.00939941L6.69385 48.2795H10.0366L16.721 63.8556H13.046ZM8.37605 52.9144L6.42862 57.438H10.3018L8.37605 52.9144Z" fill="#255B64"/>
<path d="M19.8408 63.8556V48.2795H23.294V60.7575H29.8897V63.8546H19.8408V63.8556Z" fill="#255B64"/>
<path d="M33.7412 63.8556V48.2795H37.1944V60.7575H43.7901V63.8546H33.7412V63.8556Z" fill="#255B64"/>
<path d="M60.2355 61.705C58.6709 63.2426 56.7452 64.0115 54.4582 64.0115C52.1712 64.0115 50.2454 63.2426 48.6809 61.705C47.1163 60.1673 46.3351 58.2556 46.3351 55.9668C46.3351 53.679 47.1174 51.7663 48.6809 50.2286C50.2454 48.6909 52.1702 47.9221 54.4582 47.9221C56.7452 47.9221 58.6709 48.6909 60.2355 50.2286C61.799 51.7663 62.5813 53.679 62.5813 55.9668C62.5813 58.2556 61.8 60.1673 60.2355 61.705ZM59.0631 55.9782C59.0631 54.5891 58.6204 53.4047 57.7349 52.4239C56.8494 51.4432 55.7616 50.9528 54.4706 50.9528C53.1795 50.9528 52.0907 51.4432 51.2052 52.4239C50.3197 53.4047 49.877 54.5891 49.877 55.9782C49.877 57.3673 50.3197 58.5486 51.2052 59.5211C52.0907 60.4946 53.1785 60.9808 54.4706 60.9808C55.7616 60.9808 56.8504 60.4946 57.7349 59.5211C58.6204 58.5486 59.0631 57.3673 59.0631 55.9782Z" fill="#255B64"/>
<path d="M77.4559 48.2795V51.3319H70.2844V54.6971H77.1019V57.7496H70.2844V63.8545H66.8312V48.2784H77.4559V48.2795Z" fill="#255B64"/>
<path d="M91.8867 63.8556L90.448 60.4905H83.9628L82.5241 63.8556H78.8501L85.5345 48.2795H88.8773L95.5617 63.8556H91.8867ZM87.2167 52.9144L85.2693 57.438H89.1425L87.2167 52.9144Z" fill="#255B64"/>
<path d="M112.538 54.051L108.355 62.5632H106.296L102.135 54.051V63.8556H98.6818V48.2795H103.352L107.335 56.8364L111.342 48.2795H115.99V63.8556H112.537V54.051H112.538Z" fill="#255B64"/>
<path d="M88.8939 39.6C88.607 39.3964 88.284 39.2779 87.9589 39.2634C86.9527 39.2197 86.3634 40.0364 86.0383 41.9242H89.9796C89.9198 40.9953 89.6845 40.161 88.8939 39.6Z" fill="#255B64"/>
<path d="M77.1731 41.7912C77.1814 41.8359 77.1906 41.8796 77.1989 41.9232H81.7532C81.5179 40.932 81.1722 39.9959 80.7418 39.1045C79.7831 40.6411 78.3104 41.4089 77.1731 41.7912Z" fill="#255B64"/>
<path d="M80.8998 31.2831C80.8998 30.9278 80.614 30.64 80.261 30.64C79.9081 30.64 79.6222 30.9278 79.6222 31.2831C79.6222 31.6385 79.9081 31.9262 80.261 31.9262C80.614 31.9262 80.8998 31.6385 80.8998 31.2831Z" fill="#255B64"/>
<path d="M103.492 30.0011C103.148 23.3289 98.4722 19.4962 92.5112 19.2354C90.315 19.1388 88.0755 19.3871 85.9361 18.7315C85.932 19.3445 85.8577 19.9585 85.7132 20.5569C85.256 22.478 84.0589 24.2027 82.4479 25.2718C81.6419 25.8037 80.744 26.1767 79.8203 26.3606C78.8977 26.5424 77.9513 26.5455 77.0638 26.3471C78.8688 26.1289 80.4963 25.4432 81.7709 24.3575C83.0423 23.2697 83.9247 21.8047 84.3107 20.2182C84.8597 17.9606 84.3613 15.1824 82.7461 13.4505C81.1186 11.704 78.8224 10.6078 76.458 10.4084C76.1824 10.3855 75.9058 10.373 75.6293 10.373C75.5426 10.373 75.4538 10.3751 75.3671 10.3772C71.8717 10.4676 68.8323 12.4032 67.1728 15.2541C66.1862 16.638 65.5494 18.3824 65.4772 20.5154C65.4091 22.4354 65.245 35.6011 65.1882 40.265L65.3245 41.9003H69.2874C69.2874 41.9003 70.6105 36.0458 73.1926 32.3751C74.7624 34.7575 76.0297 37.2967 76.7862 40.0946C77.9875 39.3912 78.264 38.0011 78.2434 36.8063C78.2259 35.8006 77.9049 34.8364 77.4436 33.9429C77.1195 33.3164 76.9358 32.6037 76.9358 31.8473C76.9358 31.8172 76.9358 31.7871 76.9368 31.7569C76.9379 31.6956 76.941 31.6344 76.9441 31.5741C76.9513 31.466 76.9627 31.357 76.9781 31.2489C77.1453 30.1455 77.8832 29.1949 78.7408 28.5258C79.4942 27.9388 80.389 27.4764 81.2848 27.1543C83.2859 26.4354 85.6461 26.3429 87.445 27.6302C88.5131 28.3938 89.1612 29.6551 89.1612 30.9725C89.1612 32.4458 88.3872 33.7331 87.2293 34.4551C88.6266 33.8068 89.5988 32.3866 89.5988 30.7357C89.5988 30.2868 89.5245 29.8567 89.3924 29.4536C89.8444 29.4556 90.2985 29.4515 90.7475 29.4712C93.3575 29.5855 95.5402 30.8832 96.533 33.1824C97.0604 34.4021 97.0459 35.7912 96.5413 37.0214C95.9551 38.4489 95.051 40.6442 94.5402 41.9242H98.6177C99.4887 39.6354 100.369 37.3497 101.24 35.0608C101.338 34.8042 101.405 34.5351 101.532 34.1237C101.742 34.799 104.232 39.4099 104.232 39.4099C104.232 39.4099 103.559 31.3092 103.492 30.0011ZM71.5249 21.5647C71.3071 21.5668 71.1007 21.4962 70.9273 21.3746C70.6394 21.1741 70.4444 20.8343 70.4454 20.4624C70.4474 20.0188 70.7271 19.626 71.1141 19.4546C71.2431 19.3975 71.3845 19.3653 71.5311 19.3642C72.1018 19.3601 72.623 19.8847 72.6188 20.4634C72.6147 21.0442 72.1018 21.5606 71.5249 21.5647Z" fill="#255B64"/>
<path d="M43.2988 38.8353C42.917 38.5641 42.4887 38.4062 42.0563 38.3875C40.7188 38.3304 39.9355 39.4151 39.5031 41.9231H44.7406C44.6632 40.6909 44.3495 39.5803 43.2988 38.8353Z" fill="#255B64"/>
<path d="M27.7565 41.9241H33.8103C33.4976 40.6067 33.0384 39.3631 32.4656 38.1776C31.19 40.2192 29.2323 41.2405 27.7224 41.7485C27.7327 41.8067 27.7451 41.8649 27.7565 41.9241Z" fill="#255B64"/>
<path d="M31.8247 26.9268C31.3551 26.9268 30.9753 27.3091 30.9753 27.7818C30.9753 28.2546 31.3562 28.6369 31.8247 28.6369C32.2932 28.6369 32.6741 28.2535 32.6741 27.7818C32.6741 27.3091 32.2943 26.9268 31.8247 26.9268Z" fill="#255B64"/>
<path d="M48.1071 11.7694C45.1885 11.6416 42.2121 11.9709 39.3679 11.1003C39.3627 11.9148 39.2626 12.7314 39.0717 13.5262C38.4648 16.079 36.8724 18.372 34.732 19.7922C33.6607 20.4987 32.4677 20.9943 31.2396 21.2395C30.0125 21.4816 28.7555 21.4857 27.5759 21.2208C29.9743 20.9309 32.1375 20.0197 33.832 18.5756C35.5215 17.1294 36.6949 15.1834 37.2078 13.0753C37.9375 10.0748 37.2749 6.38235 35.1283 4.08001C32.9651 1.75897 29.9134 0.302346 26.7709 0.0363722C26.4045 0.00520336 26.0371 -0.010376 25.6687 -0.010376C25.5541 -0.010376 25.4355 -0.00829831 25.3209 -0.00414247C20.6747 0.116377 16.6353 2.68884 14.4299 6.47793C13.1182 8.31793 12.273 10.6359 12.177 13.4701C12.0676 16.5808 11.7662 41.8919 11.7662 41.8919H17.2401C17.2401 41.8919 18.9987 34.1101 22.4302 29.2322C24.517 32.399 26.2012 35.7725 27.2054 39.4919C28.8019 38.5569 29.1704 36.7096 29.1415 35.1221C29.1177 33.7849 28.6915 32.5039 28.0775 31.3174C27.6471 30.4852 27.4025 29.5377 27.4025 28.5319C27.4025 28.4925 27.4025 28.4509 27.4035 28.4114C27.4046 28.3294 27.4087 28.2483 27.4139 28.1683C27.4242 28.0239 27.4386 27.8805 27.4593 27.7361C27.6812 26.2691 28.6626 25.0057 29.803 24.1174C30.8041 23.3371 31.993 22.7221 33.1839 22.2951C35.8435 21.3403 38.9798 21.2166 41.371 22.9278C42.7911 23.9429 43.6528 25.6187 43.6528 27.3704C43.6528 29.3278 42.6239 31.039 41.0851 31.999C42.9428 31.1366 44.2339 29.2499 44.2339 27.0556C44.2339 26.4592 44.1348 25.8878 43.9604 25.3517C44.561 25.3538 45.1648 25.3496 45.7623 25.3756C49.2309 25.5273 52.132 27.253 53.4509 30.3086C54.1517 31.9293 54.1321 33.7756 53.4623 35.4109C52.6841 37.308 51.4818 40.2255 50.8027 41.9262H56.2219C57.3799 38.8842 58.5491 35.8462 59.7081 32.8042C59.8392 32.4623 59.9279 32.1049 60.0972 31.5584C60.3758 32.4551 63.6855 38.5849 63.6855 38.5849C63.6855 38.5849 62.7898 27.8192 62.701 26.08C62.2448 17.2094 56.03 12.1153 48.1071 11.7694ZM20.2144 14.8644C19.9244 14.8665 19.6499 14.773 19.4198 14.612C19.0369 14.3449 18.7768 13.8951 18.7789 13.3995C18.7809 12.8104 19.1525 12.2878 19.6674 12.0603C19.8388 11.9844 20.0266 11.9418 20.2216 11.9408C20.9802 11.9356 21.6737 12.6327 21.6675 13.4026C21.6624 14.1725 20.9812 14.8592 20.2144 14.8644Z" fill="#255B64"/>
</g>
<defs>
<clipPath id="clip0_219_3515">
<rect width="116" height="64" fill="white"/>
</clipPath>
</defs>
</svg>
